# xmcd
#
# Track frame offsets: 
#        150
#        9079
#        46045
#        63613
#        84215
#        144971
#        167834
#        197943
#        214420
#        223041
#        239603
#        260194
#        271445
#        285332
#        291474
#        318267
#
# Disc length: 4378 seconds
#
# Revision: 0
# Processed by: cddbd v1.5.2PL0 Copyright (c) Steve Scherf et al.
# Submitted via: ExactAudioCopy v0.95b3
#
DISCID=f6111810
DTITLE=Bernie And Red - Pass The Duct Tape
DYEAR=2004
DGENRE=Comedy
TTITLE0=Music, Music - This Ole House
TTITLE1=You Know You're Growing Old When...
TTITLE2=Skin Graft Story
TTITLE3=Granada (Spanish Opera)
TTITLE4=Mother And Xmas Cards, Priest And Mouse
TTITLE5=Inkspots Song
TTITLE6=Children, Grandchildren And Teenagers
TTITLE7=Beep Beep
TTITLE8=Thrift Store Shirts
TTITLE9=Hello Mudda (Winter Visitor Version)
TTITLE10=El Paso
TTITLE11=Do Mine When You're Finished
TTITLE12=Brown Eyes Blue
TTITLE13=Little Girl In Kindergarten
TTITLE14=Story Of The Three Bulls
TTITLE15=Goodnight Sweetheart
EXTD=
EXTT0=
EXTT1=
EXTT2=
EXTT3=
EXTT4=
EXTT5=
EXTT6=
EXTT7=
EXTT8=
EXTT9=
EXTT10=
EXTT11=
EXTT12=
EXTT13=
EXTT14=
EXTT15=
PLAYORDER=
